<?xml version="1.0" encoding="utf-8"?>
<!-- Generator: Adobe Illustrator 22.0.1, SVG Export Plug-In . SVG Version: 6.00 Build 0)  -->
<svg version="1.1" id="Layer_1" xmlns="http://www.w3.org/2000/svg" xmlns:xlink="http://www.w3.org/1999/xlink" x="0px" y="0px"
	 viewBox="0 0 228 50" style="enable-background:new 0 0 228 50;" xml:space="preserve">
<style type="text/css">
	.st0{fill:#FFFFFF;}
</style>
<g>
	<g>
		<g>
			<path class="st0" d="M7.4,4.6L5.9,5.2c-1,0.4-2,0.7-2.8,1C2.4,6.5,2.3,6.6,2.3,7.1H2V4.9h0.2l0,0.2c0,0.3,0.1,0.3,0.4,0.2
				C3,5.3,3.5,5.1,3.9,4.9V3.4c-0.2-0.1-0.7-0.3-1-0.4C2.4,2.9,2.3,3,2.3,3.4l0,0.2H2V1.8h0.2c0.1,0.5,0.1,0.6,0.8,0.9l4.2,1.6
				L7.4,4.6z M4.3,3.5v1.3l1.8-0.6v0L4.3,3.5z"/>
			<path class="st0" d="M7.3,9.9c0,0.9-0.2,1.7-0.7,2.3c-0.4,0.4-1,0.7-1.7,0.7c-2,0-2.9-1.5-2.9-3.4v-2h0.2c0,0.7,0.1,0.7,1,0.7
				h2.8C7,8.1,7,8,7.1,7.4h0.2V9.9z M3.3,9C2.5,9,2.4,9.1,2.4,9.7c0,1.3,0.9,2,2.3,2c1.7,0,2.3-0.9,2.3-2.2c0-0.3,0-0.5-0.1-0.5
				c0,0-0.2,0-0.4,0H3.3z"/>
			<path class="st0" d="M4.7,17c-0.5,0-0.9-0.4-0.9-0.9c0-0.5,0.4-0.9,0.9-0.9c0.5,0,0.9,0.4,0.9,0.9C5.6,16.6,5.2,17,4.7,17z"/>
			<path class="st0" d="M7.3,20.5l-3.9,1.8L7.3,24v1.5H7.1c-0.1-0.7-0.1-0.7-1-0.7l-2.8,0.1c-0.9,0-0.9,0-1,0.7H2v-2.3h0.2
				C2.3,24,2.3,24,3.3,24l3.1,0v0l-4.2-1.8v-0.2l4.1-1.8v0L4.1,20c-0.7,0-1.2,0-1.4,0c-0.3,0-0.4,0.2-0.4,0.7H2v-1.9h0.2
				c0,0.4,0.1,0.6,0.4,0.6c0.2,0,0.7,0.1,1.5,0.1l1.7,0.1c1.1,0.1,1.2,0,1.2-0.7h0.2V20.5z"/>
			<path class="st0" d="M7.4,28.9l-1.5,0.6c-1,0.4-2,0.7-2.8,1.1c-0.7,0.3-0.8,0.4-0.8,0.9l-0.2,0l0-2.1l0.2,0l0,0.2
				c0.1,0.3,0.1,0.3,0.4,0.2c0.2-0.1,0.7-0.3,1.2-0.5l0-1.5c-0.2-0.1-0.7-0.2-1-0.4c-0.4-0.1-0.5-0.1-0.6,0.3l0,0.2l-0.2,0l0-1.8
				l0.2,0c0.1,0.5,0.1,0.6,0.8,0.9l4.2,1.6L7.4,28.9z M4.3,27.8l0,1.3l1.8-0.7v0L4.3,27.8z"/>
			<path class="st0" d="M6.4,31.4c0.8-0.3,0.9-0.3,0.7-1l0.2-0.1L8,32.5l-0.2,0.1C7.6,32,7.5,32,6.6,32.2L4.1,33
				c-0.8,0.3-1.5,0.4-2.3-0.1c-0.3-0.2-0.5-0.4-0.7-0.8L1.3,32c0.4,0.4,0.8,0.5,1.3,0.5c0.4,0,0.9-0.2,1.4-0.3L6.4,31.4z"/>
			<path class="st0" d="M8.1,38.3c-1.5,0.9-3.1,0.5-3.9-0.8c-0.9-1.3-0.4-2.9,0.8-3.7c1.1-0.7,2.9-0.8,3.9,0.8
				C9.7,35.9,9.4,37.5,8.1,38.3z M5.8,34.6c-1.2,0.8-1.8,2-1.2,2.9c0.5,0.7,1.4,0.9,2.7,0c1.4-0.9,1.8-2,1.3-2.9
				C8,34,7,33.9,5.8,34.6z"/>
			<path class="st0" d="M11.9,37.9c0.5,0.4,0.7,0.7,0.8,1.1c0.1,0.4,0.1,0.8-0.2,1.1c-0.4,0.5-1.1,0.6-1.7,0.4
				c0,0.3-0.2,0.9-0.2,1.3c0,0.5-0.1,0.9-0.1,1.1c0,0.3,0,0.5,0.2,0.6l-0.2,0.1l-0.3-0.2c-0.6-0.6-0.7-1-0.7-1.5
				c0-0.5,0.2-1,0.3-1.5c0-0.3,0-0.4-0.2-0.5l-0.2-0.2l-0.7,0.8c-0.6,0.7-0.6,0.8-0.1,1.2L8.6,42l-1.8-1.5l0.1-0.2
				c0.5,0.4,0.6,0.4,1.2-0.3l1.8-2.2c0.6-0.7,0.6-0.8,0.1-1.2l0.1-0.2L11.9,37.9z M9.7,39.5l0.2,0.2c0.2,0.2,0.5,0.3,0.7,0.3
				c0.4,0,0.8-0.2,1-0.5c0.5-0.6,0.3-1.2-0.1-1.6c-0.3-0.2-0.3-0.2-0.5,0L9.7,39.5z"/>
			<path class="st0" d="M16.9,41.3c-0.1,0.1-0.3,0.7-0.5,1.1l-0.2-0.1c0.1-0.4,0.1-0.6,0.1-0.8c-0.1-0.2-0.3-0.4-0.7-0.6l-0.4-0.2
				c-0.3-0.2-0.3-0.2-0.4,0.1L14,42.3l0.6,0.3c0.6,0.3,0.6,0.3,1-0.2l0.2,0.1L15,44.1L14.8,44c0.2-0.6,0.2-0.6-0.4-1l-0.6-0.3
				l-0.7,1.2c-0.2,0.4-0.3,0.6-0.2,0.8c0.1,0.2,0.3,0.3,0.6,0.5c0.4,0.2,0.7,0.4,0.9,0.3c0.2-0.1,0.5-0.2,0.8-0.5l0.2,0.2
				c-0.2,0.2-0.7,0.9-0.9,1l-3.4-2l0.1-0.2c0.6,0.3,0.7,0.3,1.2-0.5l1.4-2.5c0.4-0.8,0.4-0.8-0.1-1.2l0.1-0.2L16.9,41.3z"/>
			<path class="st0" d="M18.8,42.2l0.2,4.3l3-3l1.4,0.6l-0.1,0.2c-0.6-0.2-0.7-0.2-1,0.7l-1,2.7c-0.3,0.9-0.3,0.9,0.3,1.2L21.7,49
				l-2.1-0.8l0.1-0.2c0.6,0.2,0.6,0.2,1-0.7l1.1-2.9l0,0l-3.3,3.2l-0.2-0.1l-0.1-4.4l0,0L17.2,45c-0.3,0.7-0.4,1.1-0.5,1.3
				c-0.1,0.3,0,0.4,0.5,0.7l-0.1,0.2l-1.8-0.7l0.1-0.2c0.4,0.1,0.6,0.1,0.7-0.2c0.1-0.2,0.4-0.6,0.7-1.3l0.7-1.5
				c0.5-1,0.4-1.1-0.2-1.4l0.1-0.2L18.8,42.2z"/>
			<path class="st0" d="M27.3,47.9c-0.2,0.5-0.7,0.7-1.1,0.6c-0.5-0.2-0.7-0.7-0.6-1.1c0.2-0.5,0.7-0.7,1.1-0.6
				C27.2,46.9,27.5,47.5,27.3,47.9z"/>
			<path class="st0" d="M31.2,43.7c0.8-0.3,1.7-0.5,2.4-0.2c0.5,0.2,1,0.7,1.2,1.3c0.7,1.9-0.4,3.2-2.2,3.9l-1.9,0.7l-0.1-0.2
				c0.6-0.3,0.6-0.4,0.3-1.2l-1-2.6c-0.3-0.8-0.4-0.9-1-0.7l-0.1-0.2L31.2,43.7z M31.9,47.8c0.3,0.7,0.4,0.8,1,0.6
				c1.2-0.5,1.5-1.7,1-2.9c-0.7-1.6-1.7-1.8-2.9-1.3c-0.2,0.1-0.4,0.2-0.5,0.3c0,0.1,0,0.2,0.1,0.4L31.9,47.8z"/>
			<path class="st0" d="M37.1,41c0.1,0.1,0.4,0.6,0.6,1.1l-0.2,0.1c-0.3-0.3-0.4-0.5-0.6-0.5c-0.2-0.1-0.4,0-0.9,0.2l-0.4,0.2
				c-0.3,0.1-0.3,0.1-0.2,0.4l0.8,1.5l0.6-0.3c0.6-0.3,0.6-0.4,0.4-1l0.2-0.1l0.8,1.5l-0.2,0.1c-0.4-0.5-0.4-0.6-1-0.2l-0.6,0.3
				l0.6,1.2c0.2,0.4,0.3,0.6,0.5,0.6c0.2,0,0.4-0.1,0.7-0.3c0.4-0.2,0.7-0.4,0.7-0.6c0.1-0.2,0-0.5,0-0.9l0.2-0.1
				c0.1,0.3,0.3,1.1,0.4,1.3l-3.5,1.8L36,47.2c0.6-0.4,0.6-0.4,0.2-1.2L35,43.5c-0.4-0.8-0.5-0.8-1.1-0.6l-0.1-0.2L37.1,41z"/>
			<path class="st0" d="M39.6,39.5l0.1,0.2c-0.5,0.4-0.5,0.5-0.1,1.2l1.5,2.4c0.5,0.7,0.6,0.8,1.1,0.5l0.1,0.2l-1.9,1.2L40.3,45
				c0.5-0.4,0.5-0.5,0.1-1.2l-1.5-2.4c-0.5-0.7-0.6-0.8-1.1-0.5l-0.1-0.2L39.6,39.5z"/>
			<path class="st0" d="M43.9,39.4c0.3,0.4,0.3,1-0.1,1.3c-0.4,0.3-1,0.2-1.3-0.2c-0.3-0.4-0.2-1,0.1-1.3C43,38.9,43.6,39,43.9,39.4
				z"/>
			<g>
				<path class="st0" d="M49.4,34.2c0.3,0.1,0.5,0.2,0.7,0.2c0,0.5,0,1.2-0.2,1.8c-0.6,1.7-2,2.5-3.5,2c-1.8-0.6-2.2-2.3-1.7-3.8
					c0.2-0.7,0.5-1.2,0.7-1.4c0.3,0.1,0.7,0.2,1.3,0.3l0,0.3c-1-0.1-1.4,0.5-1.7,1.1c-0.3,1.1,0.2,2.1,1.6,2.5
					c1.2,0.4,2.6,0.3,3-1.1c0.1-0.2,0.1-0.4,0.1-0.5c0-0.2-0.1-0.3-0.4-0.4l-0.6-0.2c-0.5-0.2-0.6-0.2-0.9,0.6l-0.2-0.1l0.7-2.1
					l0.2,0.1c-0.1,0.4,0,0.5,0.5,0.6L49.4,34.2z"/>
				<path class="st0" d="M45.7,30l0.2,0c0,0.6,0,0.7,0.9,0.8l2.8,0.4c0.5,0.1,0.7,0,0.8-0.1c0.1-0.1,0.2-0.4,0.2-0.6
					c0.1-0.4,0.2-1.3,0-1.5c-0.1-0.2-0.4-0.3-0.8-0.5l0.1-0.2c0.2,0.1,1,0.4,1.3,0.5L50.6,33l-0.2,0c0-0.7,0-0.8-0.9-0.9l-2.8-0.4
					c-0.9-0.1-0.9-0.1-1.1,0.6l-0.2,0L45.7,30z"/>
				<path class="st0" d="M48.7,22.6c1.7,0.1,2.8,1.4,2.7,2.9c-0.1,1.6-1.4,2.6-2.8,2.5c-1.3-0.1-2.8-1.1-2.6-3
					C46,23.6,47.1,22.5,48.7,22.6z M48.3,27c1.5,0.1,2.6-0.5,2.7-1.6c0.1-0.8-0.6-1.5-2.1-1.6c-1.7-0.1-2.7,0.5-2.7,1.6
					C46.1,26.2,46.9,26.9,48.3,27z"/>
				<path class="st0" d="M46,20.2c0-0.6,0.1-1,0.3-1.3c0.2-0.3,0.6-0.5,1-0.5c0.7,0,1.2,0.4,1.4,1.1c0.2-0.1,0.8-0.4,1.2-0.7
					c0.4-0.3,0.7-0.5,0.9-0.7c0.2-0.2,0.3-0.3,0.4-0.6l0.2,0l0,0.3c-0.1,0.9-0.3,1.2-0.7,1.5c-0.4,0.3-0.9,0.5-1.3,0.8
					C49,20.2,49,20.3,49,20.6v0.3H50c0.9,0,0.9-0.1,1-0.7h0.2v2.3H51c0-0.6-0.1-0.7-1-0.7h-2.8c-0.9,0-0.9,0.1-1,0.7H46V20.2z
					 M48.7,20.8v-0.3c0-0.3,0-0.6-0.2-0.8c-0.3-0.3-0.6-0.4-1-0.4c-0.8,0-1.1,0.6-1.1,1.1c0,0.4,0,0.4,0.3,0.4H48.7z"/>
				<path class="st0" d="M46,14.7h0.2c0,0.6,0.1,0.7,1,0.7H50c0.9,0,0.9-0.1,1-0.7h0.2v2.3H51c0-0.6-0.1-0.7-1-0.7h-2.8
					c-0.9,0-0.9,0.1-1,0.7H46V14.7z"/>
				<path class="st0" d="M45.9,11.4l1.5-0.6c1-0.4,2-0.7,2.8-1C50.9,9.5,51,9.4,51,8.9h0.2v2.1H51l0-0.2c0-0.3-0.1-0.3-0.4-0.2
					c-0.2,0.1-0.7,0.3-1.2,0.4v1.5c0.2,0.1,0.7,0.3,1,0.4c0.4,0.1,0.5,0.1,0.6-0.3l0-0.2h0.2v1.8H51c-0.1-0.5-0.1-0.6-0.8-0.9
					L46,11.7L45.9,11.4z M49,12.5v-1.3l-1.8,0.6v0L49,12.5z"/>
				<path class="st0" d="M46,6.8L49.9,5L46,3.3V1.8h0.2c0.1,0.7,0.1,0.7,1,0.7L50,2.4c0.9,0,0.9,0,1-0.7h0.2v2.3H51
					C51,3.3,51,3.3,50,3.3l-3.1,0v0l4.2,1.8v0.2l-4.1,1.8v0l2.1,0.1c0.7,0,1.2,0,1.4,0c0.3,0,0.4-0.2,0.4-0.7h0.2v1.9H51
					c0-0.4-0.1-0.6-0.4-0.6c-0.2,0-0.7-0.1-1.5-0.1l-1.7-0.1c-1.1-0.1-1.2,0-1.2,0.7H46V6.8z"/>
			</g>
		</g>
		<g>
			<path class="st0" d="M26.7,17.4"/>
			<path class="st0" d="M11.5,11.2l0.2-1.1h1.5V15H12v-3.8H11.5z"/>
			<path class="st0" d="M17.4,11.3c0,0.5-0.3,0.9-0.8,1.1v0c0.6,0.2,1,0.6,1,1.3c0,1-1,1.5-1.8,1.5c-0.8,0-1.8-0.5-1.8-1.5
				c0-0.6,0.4-1.1,1-1.3v0c-0.4-0.1-0.8-0.6-0.8-1.1c0-0.9,0.8-1.4,1.6-1.4C16.6,9.9,17.4,10.4,17.4,11.3z M15.3,11.3
				c0,0.3,0.2,0.5,0.5,0.5c0.3,0,0.5-0.2,0.5-0.5c0-0.3-0.2-0.5-0.5-0.5C15.5,10.8,15.3,11,15.3,11.3z M15.2,13.5
				c0,0.3,0.3,0.6,0.6,0.6c0.3,0,0.6-0.3,0.6-0.6c0-0.3-0.3-0.6-0.6-0.6C15.5,12.9,15.2,13.2,15.2,13.5z"/>
			<path class="st0" d="M18.1,11.3v-1.2h4L19.5,15h-1.5l2.1-3.7H18.1z"/>
			<path class="st0" d="M25.9,12.5c0,1.2-0.6,2.5-2,2.5c-1.4,0-2-1.3-2-2.5s0.6-2.5,2-2.5C25.3,10,25.9,11.3,25.9,12.5z M23.1,12.5
				c0,0.5,0.1,1.5,0.8,1.5c0.6,0,0.8-1,0.8-1.5c0-0.5-0.2-1.4-0.8-1.4C23.3,11,23.1,12,23.1,12.5z"/>
			<g>
				<path class="st0" d="M24.9,20.5c0,0-1.1,0-1.7,0c-0.6,0-2.3,1.2-2.3,1.2s-0.2-1.4,1-1.8c1.3-0.5,1-0.9,1-0.9l-1.2,0.4
					c0,0-0.1-0.1,0.1-0.4c0.1-0.2,1.1-0.5,1.1-0.5c0.8-0.3,0.5-0.9,0.5-0.9L22,17.7c-0.3-0.3-0.3-0.3-0.7-0.4
					c-0.4-0.1-1.1,0.5-1.1,0.3c0.1-0.2,0.1-0.8,0.2-1.4c0.1-0.6-1.7,2-1.7,2c-2.3,4.4-1.7,7.4-1.7,7.4c-1.5,0.7-1.5,2.4-1.5,1.9
					c0-2.5,0.8-2.3,0.8-3.9c0-1.6-1.7-1.4-1.7-1.4c-0.7,0-0.9,0.4-0.9,0.4s0.3-0.1,0.5,0.1c0,0,0.5,0.4-0.4,2.5c-0.2,0.4-1,1.9,0,3
					c0.7,0.8,1.8,0.5,1.8,0.5c0.1,0.4,0.1,0.6,0.1,0.6h-0.8c-0.7,0-0.8,0.8-0.8,0.8v3.3l0.5,0.5h1.8c0-0.8-1-1.2-1-1.2v-1.4h1.7
					c0.9-0.1,1.4-1.8,1.4-1.8l0.6,0.1c0,0.1-0.9,1.8-0.9,1.8l1.9,1.8v0.5h2.1c0.1-0.5-0.9-1-0.9-1L20,31.7c-0.2-0.2-0.1-0.4,0.2-0.4
					c0.3-0.1,0.5-0.1,0.7-0.3c0.3-0.1,1.5-0.9,1-2.3c-0.5-1.4-2.2-0.9-2.2-1c0-0.2,0.9-2.2,0.9-2.2l-0.7-1.1l0.9,0.5l2.3-0.4
					c0.2,1.9,1.1,1.4,1.1,1.4v-1.4c0,0,0-0.9-0.9-1.2c-1-0.3-1.7-0.1-2.1-0.2c-0.3-0.1-0.2-0.3-0.2-0.3l1.3,0l1.2-1l0.7-0.1
					C25.3,21.4,24.9,20.5,24.9,20.5z M21.5,17.8l0.2,0.3h-0.9L21.5,17.8z"/>
				<path class="st0" d="M26.7,34.2c0,0-1.3,0.1-2.5-1c-1.1-1.1-1.1-2.5-1.1-2.5v-2.6c0,0-0.3-0.1-0.3-0.4c0-0.4,0.4-0.3,0.4-0.3H24
					c0,0.9,0.5,0.8,0.5,0.8c0.6,0,0.5-0.8,0.5-0.8h1.7h0h1.7c0,0-0.1,0.8,0.5,0.8c0,0,0.5,0.1,0.5-0.8h0.8c0,0,0.4-0.1,0.4,0.3
					c0,0.3-0.3,0.4-0.3,0.4v2.6c0,0,0,1.3-1.1,2.5C28,34.3,26.7,34.2,26.7,34.2L26.7,34.2z"/>
				<path class="st0" d="M39.6,28.3c1-1.1,0.2-2.6,0-3c-0.9-2.1-0.4-2.5-0.4-2.5c0.1-0.2,0.5-0.1,0.5-0.1s-0.2-0.4-0.9-0.4
					c0,0-1.7-0.1-1.7,1.4c0,1.6,0.8,1.4,0.8,3.9c0,0.4,0-1.2-1.5-1.9c0,0,0.6-3-1.7-7.4c0,0-1.8-2.6-1.7-2c0.1,0.6,0.1,1.2,0.2,1.4
					c0.1,0.2-0.6-0.4-1.1-0.3c-0.4,0.1-0.4,0.1-0.7,0.4L30,17.6c0,0-0.2,0.6,0.5,0.9c0,0,1,0.3,1.1,0.5c0.2,0.3,0.1,0.4,0.1,0.4
					L30.4,19c0,0-0.3,0.4,1,0.9c1.3,0.5,1,1.8,1,1.8s-1.7-1.2-2.3-1.2c-0.7,0-1.7,0-1.7,0s-0.4,0.9,0.8,1.1l0.7,0.1l1.2,1l1.3,0
					c0,0,0.1,0.3-0.2,0.3c-0.3,0.1-1-0.1-2.1,0.2c-0.9,0.3-0.9,1.2-0.9,1.2v1.4c0,0,0.9,0.5,1.1-1.4l2.3,0.4l0.9-0.5l-0.7,1.1
					c0,0,0.9,2.1,0.9,2.2c0,0.2-1.7-0.4-2.2,1c-0.5,1.5,0.7,2.2,1,2.3c0.3,0.1,0.5,0.2,0.7,0.3c0.2,0.1,0.4,0.3,0.2,0.4L32,33.1
					c0,0-1,0.4-0.9,1h2.1v-0.5l1.9-1.8c0,0-1-1.7-0.9-1.8l0.7-0.1c0,0,0.5,1.7,1.4,1.8h1.7V33c0,0-1.1,0.3-1,1.2h1.8l0.5-0.5v-3.3
					c0,0,0-0.8-0.8-0.8h-0.8c0,0,0-0.2,0.1-0.6C37.8,28.8,38.9,29.1,39.6,28.3z M31.6,18.2l0.2-0.3l0.7,0.3H31.6z"/>
				<path class="st0" d="M26.8,24.4l0-6.6l0,0c0.1-0.1,0.2-0.2,0.2-0.3c0-0.2-0.1-0.3-0.3-0.3c0,0,0,0,0,0c0,0,0,0,0,0
					c-0.2,0-0.3,0.1-0.3,0.3c0,0.1,0.1,0.2,0.2,0.3l0,0l0,6.6l-2.2,2.2v0.7h0.3l0-0.6l2-2.1l2,2.1l0,0.6H29v-0.7L26.8,24.4z"/>
			</g>
			<g>
				<g>
					<polygon class="st0" points="26.7,8.5 26.7,8.5 26.7,6.4 26.7,6.4 					"/>
					<polygon class="st0" points="26.7,8.5 33,2.8 33,2.8 33.8,2.1 33.8,2.1 31.4,2.1 26.7,6.4 					"/>
				</g>
				<polygon class="st0" points="26.7,10.7 26.7,10.7 26.7,12.8 37.7,2.8 37.7,2.8 38.5,2.1 38.5,2.1 36.1,2.1 26.7,10.7 				"/>
				<polygon class="st0" points="43.1,2.1 40.9,2.1 26.7,15 26.7,15 26.7,15 29.1,15 42.3,2.8 42.3,2.8 43.1,2.1 43.1,2.1 				"/>
				<polygon class="st0" points="31.4,15 33.8,15 42.4,7 42.4,7.1 43.1,6.4 43.1,4.2 				"/>
				<g>
					<polygon class="st0" points="36.1,15 38.5,15 42.4,11.4 42.4,11.4 43.1,10.7 43.1,10.7 43.1,8.5 					"/>
					<path class="st0" d="M42.4,15v13.2c0,8.7-14.5,12.7-15.8,13.1c-1.3-0.3-15.8-4.3-15.8-13.1V2.8h15.8v1.4l1.6-1.4h0l0.8-0.7h0
						h-2.4H10.2v26.1c0,4,2.9,7.7,8.2,10.6c4,2.2,8.1,3.2,8.1,3.2l0.1,0l0.1,0c0,0,4.1-1,8.1-3.2c5.4-2.9,8.2-6.6,8.2-10.6V12.8
						L40.9,15H42.4z"/>
				</g>
			</g>
		</g>
	</g>
	<g>
		<g>
			<path class="st0" d="M63,29.9v-1.4c4.2-0.3,4.5-0.6,4.5-5.2V8.7c0-4.7-0.4-4.9-4.2-5.2V2.1h13.5v1.4c-4.2,0.3-4.5,0.5-4.5,5.2
				v14.7c0,2.4,0.3,3.7,1.2,4.1c0.8,0.4,2.1,0.5,4.4,0.5c2.4,0,4.3-0.4,5.3-1.6c0.7-0.7,1.5-2.2,2.1-4.2l1.6,0.2
				c-0.3,1.4-1.2,6.2-1.6,7.4H63z"/>
			<path class="st0" d="M87.1,16.6c0-10.5,8-15.3,14.4-15.3c8.7,0,14.3,6.3,14.3,14.4c0,9.8-7.2,15-14.3,15
				C92.2,30.7,87.1,23.4,87.1,16.6z M102.1,28.8c4.7,0,8.4-3.1,8.4-11.9c0-7.1-3.4-13.7-9.4-13.7c-4.9,0-8.4,4.3-8.4,11.9
				C92.6,23.2,96.1,28.8,102.1,28.8z"/>
			<path class="st0" d="M121.8,29.9v-1.4c4.4-0.3,4.7-0.6,4.7-5.2v-3.8c0-1.2-0.1-1.6-0.9-2.9c-1.3-2.3-3-5.2-5.7-9.9
				c-1.6-2.7-2-2.8-4.7-3.1V2.1h12.1v1.4l-1.9,0.3c-1.4,0.2-1.5,0.6-0.8,1.8c0.3,0.6,4.2,7.5,5.6,9.9c1.9-3.3,3.8-7.5,4.7-9.5
				c0.8-1.7,0.7-2-1-2.2l-1.8-0.3V2.1h10.7v1.4c-3.3,0.3-3.5,0.7-5.1,3.2c-1.6,2.4-3.5,5.4-5.5,9c-0.9,1.7-1,2.1-1,3.1v4.5
				c0,4.6,0.4,4.9,4.8,5.2v1.4H121.8z"/>
			<path class="st0" d="M141.2,16.6c0-10.5,8-15.3,14.4-15.3c8.7,0,14.3,6.3,14.3,14.4c0,9.8-7.2,15-14.3,15
				C146.3,30.7,141.2,23.4,141.2,16.6z M156.2,28.8c4.7,0,8.4-3.1,8.4-11.9c0-7.1-3.4-13.7-9.4-13.7c-4.9,0-8.4,4.3-8.4,11.9
				C146.7,23.2,150.2,28.8,156.2,28.8z"/>
			<path class="st0" d="M172.1,29.9v-1.4c4.2-0.3,4.5-0.6,4.5-5.2V8.7c0-4.7-0.4-4.9-4.2-5.2V2.1h13.5v1.4c-4.2,0.3-4.5,0.5-4.5,5.2
				v14.7c0,2.4,0.3,3.7,1.2,4.1c0.8,0.4,2.1,0.5,4.4,0.5c2.4,0,4.3-0.4,5.3-1.6c0.7-0.7,1.5-2.2,2.1-4.2l1.6,0.2
				c-0.3,1.4-1.2,6.2-1.6,7.4H172.1z"/>
			<path class="st0" d="M213.5,28.5l1.1-0.1c1.7-0.2,2.2-0.7,1-3.6l-2.1-5.1h-8.4c-0.4,1-1.5,3.9-2.1,5.8c-0.7,2.1-0.2,2.7,1.6,2.9
				l1.4,0.1v1.4h-10.6v-1.4c2.7-0.3,3.7-0.6,5.5-4.9l9-21.9l1.5-0.4l9,23c1.5,3.7,2.6,3.9,5.3,4.1v1.4h-12.2V28.5z M205.9,17.6h7
				l-3.5-9.5h-0.1L205.9,17.6z"/>
		</g>
		<g>
			<path class="st0" d="M63,35.6h2v5.7c0,0.6,0.1,1.1,0.2,1.4c0.2,0.5,0.7,0.8,1.5,0.8c0.8,0,1.3-0.3,1.5-0.8
				c0.2-0.3,0.2-0.8,0.2-1.4v-5.7h2v5.7c0,1-0.2,1.8-0.5,2.3c-0.6,1-1.7,1.5-3.3,1.5c-1.6,0-2.7-0.5-3.3-1.5
				C63.1,43,63,42.3,63,41.3V35.6z"/>
			<path class="st0" d="M73.9,35.6h2l3.7,6.5v-6.5h1.8v9.3h-1.9l-3.8-6.6v6.6h-1.8V35.6z"/>
			<path class="st0" d="M86.8,44.8h-1.9v-9.3h1.9V44.8z"/>
			<path class="st0" d="M95.6,35.6h2l-3.2,9.3h-1.8l-3.1-9.3h2.1l2,7L95.6,35.6z"/>
			<path class="st0" d="M106.8,37.2h-4.9v2h4.5v1.6h-4.5v2.4h5.1v1.7h-7v-9.3h6.8V37.2z"/>
			<path class="st0" d="M115.9,35.8c0.3,0.1,0.6,0.4,0.9,0.6c0.2,0.2,0.4,0.5,0.5,0.8c0.1,0.3,0.2,0.6,0.2,1c0,0.4-0.1,0.9-0.3,1.3
				c-0.2,0.4-0.6,0.7-1.1,0.9c0.4,0.2,0.7,0.4,0.9,0.7c0.2,0.3,0.3,0.8,0.3,1.4v0.6c0,0.4,0,0.7,0.1,0.9c0.1,0.2,0.2,0.4,0.4,0.5
				v0.2h-2.1c-0.1-0.2-0.1-0.4-0.1-0.5c-0.1-0.3-0.1-0.5-0.1-0.8l0-0.9c0-0.6-0.1-1-0.3-1.2c-0.2-0.2-0.6-0.3-1.1-0.3h-1.9v3.6H110
				v-9.3h4.4C115.1,35.6,115.6,35.7,115.9,35.8z M111.9,37.2v2.5h2.1c0.4,0,0.7-0.1,0.9-0.2c0.4-0.2,0.6-0.5,0.6-1
				c0-0.6-0.2-0.9-0.5-1.1c-0.2-0.1-0.5-0.2-0.9-0.2H111.9z"/>
			<path class="st0" d="M121.6,42c0.1,0.4,0.2,0.7,0.4,0.9c0.3,0.4,0.9,0.6,1.6,0.6c0.5,0,0.8-0.1,1.1-0.2c0.6-0.2,0.8-0.5,0.8-1.1
				c0-0.3-0.1-0.5-0.4-0.7c-0.3-0.2-0.7-0.3-1.3-0.4l-1-0.2c-1-0.2-1.7-0.5-2-0.7c-0.6-0.4-0.9-1.1-0.9-2c0-0.8,0.3-1.5,0.9-2.1
				c0.6-0.5,1.5-0.8,2.7-0.8c1,0,1.8,0.3,2.5,0.8c0.7,0.5,1.1,1.3,1.1,2.3h-1.9c0-0.6-0.3-1-0.7-1.2c-0.3-0.2-0.7-0.2-1.2-0.2
				c-0.5,0-0.9,0.1-1.2,0.3c-0.3,0.2-0.5,0.5-0.5,0.8c0,0.3,0.1,0.6,0.4,0.7c0.2,0.1,0.6,0.2,1.2,0.4l1.6,0.4
				c0.7,0.2,1.2,0.4,1.6,0.7c0.6,0.4,0.8,1.1,0.8,1.9c0,0.8-0.3,1.5-1,2.1c-0.7,0.6-1.6,0.8-2.8,0.8c-1.2,0-2.2-0.3-2.9-0.8
				c-0.7-0.6-1-1.3-1-2.3H121.6z"/>
			<path class="st0" d="M132.4,44.8h-1.9v-9.3h1.9V44.8z"/>
			<path class="st0" d="M142.8,35.6v1.6H140v7.6h-1.9v-7.6h-2.8v-1.6H142.8z"/>
			<path class="st0" d="M150.1,35.6h2.2l-3.1,5.8v3.5h-1.9v-3.5l-3.2-5.8h2.3l1.9,4L150.1,35.6z"/>
			<path class="st0" d="M160.5,36.5c0.7-0.8,1.7-1.1,2.8-1.1c1.5,0,2.7,0.5,3.4,1.5c0.4,0.6,0.6,1.1,0.6,1.7h-1.9
				c-0.1-0.4-0.3-0.8-0.5-1c-0.3-0.4-0.9-0.6-1.5-0.6c-0.7,0-1.2,0.3-1.6,0.9c-0.4,0.6-0.6,1.4-0.6,2.4c0,1,0.2,1.8,0.6,2.3
				c0.4,0.5,1,0.8,1.6,0.8c0.7,0,1.2-0.2,1.5-0.7c0.2-0.2,0.3-0.6,0.5-1.1h1.9c-0.2,1-0.6,1.8-1.3,2.5c-0.7,0.6-1.6,0.9-2.6,0.9
				c-1.3,0-2.4-0.4-3.1-1.3c-0.8-0.9-1.1-2-1.1-3.5C159.2,38.7,159.6,37.4,160.5,36.5z"/>
			<path class="st0" d="M170.1,44.8v-9.3h1.9v3.5h3.6v-3.5h1.9v9.3h-1.9v-4.1H172v4.1H170.1z"/>
			<path class="st0" d="M183,44.8h-1.9v-9.3h1.9V44.8z"/>
			<path class="st0" d="M187.3,36.5c0.7-0.8,1.7-1.1,2.8-1.1c1.5,0,2.7,0.5,3.4,1.5c0.4,0.6,0.6,1.1,0.6,1.7h-1.9
				c-0.1-0.4-0.3-0.8-0.5-1c-0.3-0.4-0.9-0.6-1.5-0.6c-0.7,0-1.2,0.3-1.6,0.9c-0.4,0.6-0.6,1.4-0.6,2.4c0,1,0.2,1.8,0.6,2.3
				c0.4,0.5,1,0.8,1.6,0.8c0.7,0,1.2-0.2,1.5-0.7c0.2-0.2,0.4-0.6,0.5-1.1h1.9c-0.2,1-0.6,1.8-1.3,2.5c-0.7,0.6-1.6,0.9-2.6,0.9
				c-1.3,0-2.4-0.4-3.1-1.3c-0.8-0.9-1.1-2-1.1-3.5C186,38.7,186.5,37.4,187.3,36.5z"/>
			<path class="st0" d="M198.8,35.6h2.2l3.3,9.3h-2.1l-0.6-1.9h-3.4l-0.6,1.9h-2L198.8,35.6z M198.6,41.3h2.4l-1.2-3.6L198.6,41.3z"
				/>
			<path class="st0" d="M212.4,38.5c-0.1-0.6-0.5-1.1-1.1-1.3c-0.3-0.1-0.7-0.2-1.1-0.2c-0.7,0-1.4,0.3-1.8,0.8
				c-0.5,0.6-0.7,1.4-0.7,2.5c0,1.1,0.3,1.9,0.8,2.4c0.5,0.5,1.1,0.7,1.8,0.7c0.7,0,1.2-0.2,1.6-0.6c0.4-0.4,0.7-0.9,0.8-1.5h-2.1
				v-1.5h3.9v5h-1.3l-0.2-1.2c-0.4,0.4-0.7,0.7-1,0.9c-0.5,0.3-1.1,0.5-1.9,0.5c-1.2,0-2.2-0.4-3-1.3c-0.8-0.9-1.2-2-1.2-3.5
				c0-1.5,0.4-2.7,1.2-3.6c0.8-0.9,1.9-1.4,3.3-1.4c1.2,0,2.1,0.3,2.8,0.9c0.7,0.6,1.1,1.3,1.2,2.2H212.4z"/>
			<path class="st0" d="M224.6,44c-0.7,0.7-1.7,1.1-3,1.1c-1.3,0-2.3-0.4-3-1.1c-0.9-0.9-1.4-2.2-1.4-3.8c0-1.7,0.5-3,1.4-3.8
				c0.7-0.7,1.7-1.1,3-1.1c1.3,0,2.3,0.4,3,1.1c0.9,0.8,1.4,2.1,1.4,3.8C226,41.9,225.5,43.1,224.6,44z M223.4,42.6
				c0.4-0.6,0.7-1.4,0.7-2.4c0-1-0.2-1.8-0.7-2.4c-0.5-0.6-1.1-0.8-1.8-0.8c-0.8,0-1.4,0.3-1.8,0.8c-0.5,0.6-0.7,1.4-0.7,2.4
				c0,1,0.2,1.8,0.7,2.4c0.5,0.6,1.1,0.8,1.8,0.8C222.3,43.5,222.9,43.2,223.4,42.6z"/>
		</g>
	</g>
</g>
</svg>
