<svg version="1.1" id="Layer_1" xmlns="http://www.w3.org/2000/svg" x="0" y="0" viewBox="0 0 228 50" xml:space="preserve"><style>.st0{fill:#fff}</style><path class="st0" d="M7.4 4.6l-1.5.6c-1 .4-2 .7-2.8 1-.7.3-.8.4-.8.9H2V4.9h.2v.2c0 .3.1.3.4.2.4 0 .9-.2 1.3-.4V3.4c-.2-.1-.7-.3-1-.4-.5-.1-.6 0-.6.4v.2H2V1.8h.2c.1.5.1.6.8.9l4.2 1.6.2.3zM4.3 3.5v1.3l1.8-.6-1.8-.7zm3 6.4c0 .9-.2 1.7-.7 2.3-.4.4-1 .7-1.7.7-2 0-2.9-1.5-2.9-3.4v-2h.2c0 .7.1.7 1 .7H6c1-.1 1-.2 1.1-.8h.2v2.5zm-4-.9c-.8 0-.9.1-.9.7 0 1.3.9 2 2.3 2 1.7 0 2.3-.9 2.3-2.2 0-.3 0-.5-.1-.5H3.3zm1.4 8c-.5 0-.9-.4-.9-.9s.4-.9.9-.9.9.4.9.9-.4.9-.9.9zm2.6 3.5l-3.9 1.8L7.3 24v1.5h-.2c-.1-.7-.1-.7-1-.7l-2.8.1c-.9 0-.9 0-1 .7H2v-2.3h.2c.1.7.1.7 1.1.7h3.1l-4.2-1.8V22l4.1-1.8-2.2-.2H2.7c-.3 0-.4.2-.4.7H2v-1.9h.2c0 .4.1.6.4.6.2 0 .7.1 1.5.1l1.7.1c1.1.1 1.2 0 1.2-.7h.2v1.6zm.1 8.4l-1.5.6c-1 .4-2 .7-2.8 1.1-.7.3-.8.4-.8.9h-.2v-2.1h.2v.2c.1.3.1.3.4.2.2-.1.7-.3 1.2-.5v-1.5c-.2-.1-.7-.2-1-.4-.4-.1-.5-.1-.6.3v.2h-.2v-1.8h.2c.1.5.1.6.8.9l4.2 1.6.1.3zm-3.1-1.1v1.3l1.8-.7-1.8-.6zm2.1 3.6c.8-.3.9-.3.7-1l.2-.1.7 2.2-.2.1c-.2-.6-.3-.6-1.2-.4l-2.5.8c-.8.3-1.5.4-2.3-.1-.3-.2-.5-.4-.7-.8l.2-.1c.4.4.8.5 1.3.5.4 0 .9-.2 1.4-.3l2.4-.8zm1.7 6.9c-1.5.9-3.1.5-3.9-.8-.9-1.3-.4-2.9.8-3.7 1.1-.7 2.9-.8 3.9.8.8 1.3.5 2.9-.8 3.7zm-2.3-3.7c-1.2.8-1.8 2-1.2 2.9.5.7 1.4.9 2.7 0 1.4-.9 1.8-2 1.3-2.9-.6-.6-1.6-.7-2.8 0zm6.1 3.3c.5.4.7.7.8 1.1.1.4.1.8-.2 1.1-.4.5-1.1.6-1.7.4 0 .3-.2.9-.2 1.3 0 .5-.1.9-.1 1.1 0 .3 0 .5.2.6l-.2.1-.3-.2c-.6-.6-.7-1-.7-1.5s.2-1 .3-1.5c0-.3 0-.4-.2-.5l-.2-.2-.7.8c-.6.7-.6.8-.1 1.2v.3l-1.8-1.5.1-.2c.5.4.6.4 1.2-.3l1.8-2.2c.6-.7.6-.8.1-1.2l.1-.2 1.8 1.5zm-2.2 1.6l.2.2c.2.2.5.3.7.3.4 0 .8-.2 1-.5.5-.6.3-1.2-.1-1.6-.3-.2-.3-.2-.5 0l-1.3 1.6zm7.2 1.8c-.1.1-.3.7-.5 1.1l-.2-.1c.1-.4.1-.6.1-.8-.1-.2-.3-.4-.7-.6l-.4-.2c-.3-.2-.3-.2-.4.1l-.8 1.5.6.3c.6.3.6.3 1-.2l.2.1-.8 1.6-.2-.1c.2-.6.2-.6-.4-1l-.6-.3-.7 1.2c-.2.4-.3.6-.2.8.1.2.3.3.6.5.4.2.7.4.9.3.2-.1.5-.2.8-.5l.2.2c-.2.2-.7.9-.9 1l-3.4-2 .1-.2c.6.3.7.3 1.2-.5l1.4-2.5c.4-.8.4-.8-.1-1.2l.1-.2 3.1 1.7zm1.9.9l.2 4.3 3-3 1.4.6-.1.2c-.6-.2-.7-.2-1 .7l-1 2.7c-.3.9-.3.9.3 1.2l.1.1-2.1-.8.1-.2c.6.2.6.2 1-.7l1.1-2.9-3.3 3.2-.2-.1-.1-4.4-1 1.9c-.3.7-.4 1.1-.5 1.3-.1.3 0 .4.5.7l-.1.2-1.8-.7.1-.2c.4.1.6.1.7-.2.1-.2.4-.6.7-1.3l.7-1.5c.5-1 .4-1.1-.2-1.4l.1-.2 1.4.5zm8.5 5.7c-.2.5-.7.7-1.1.6-.5-.2-.7-.7-.6-1.1.2-.5.7-.7 1.1-.6.5.1.8.7.6 1.1zm3.9-4.2c.8-.3 1.7-.5 2.4-.2.5.2 1 .7 1.2 1.3.7 1.9-.4 3.2-2.2 3.9l-1.9.7-.1-.2c.6-.3.6-.4.3-1.2l-1-2.6c-.3-.8-.4-.9-1-.7l-.1-.2 2.4-.8zm.7 4.1c.3.7.4.8 1 .6 1.2-.5 1.5-1.7 1-2.9-.7-1.6-1.7-1.8-2.9-1.3-.2.1-.4.2-.5.3 0 .1 0 .2.1.4l1.3 2.9z"/><path class="st0" d="M37.1 41c.1.1.4.6.6 1.1l-.2.1c-.3-.3-.4-.5-.6-.5-.2-.1-.4 0-.9.2l-.4.2c-.3.1-.3.1-.2.4l.8 1.5.6-.3c.6-.3.6-.4.4-1l.2-.1.8 1.5-.2.1c-.4-.5-.4-.6-1-.2l-.6.3.6 1.2c.2.4.3.6.5.6s.4-.1.7-.3c.4-.2.7-.4.7-.6.1-.2 0-.5 0-.9l.2-.1c.1.3.3 1.1.4 1.3L36 47.3v-.1c.6-.4.6-.4.2-1.2L35 43.5c-.4-.8-.5-.8-1.1-.6l-.1-.2 3.3-1.7zm2.5-1.5l.1.2c-.5.4-.5.5-.1 1.2l1.5 2.4c.5.7.6.8 1.1.5l.1.2-1.9 1.2-.1-.2c.5-.4.5-.5.1-1.2l-1.5-2.4c-.5-.7-.6-.8-1.1-.5l-.1-.2 1.9-1.2zm4.3-.1c.3.4.3 1-.1 1.3-.4.3-1 .2-1.3-.2-.3-.4-.2-1 .1-1.3.4-.3 1-.2 1.3.2zm5.5-5.2c.3.1.5.2.7.2 0 .5 0 1.2-.2 1.8-.6 1.7-2 2.5-3.5 2-1.8-.6-2.2-2.3-1.7-3.8.2-.7.5-1.2.7-1.4.3.1.7.2 1.3.3v.3c-1-.1-1.4.5-1.7 1.1-.3 1.1.2 2.1 1.6 2.5 1.2.4 2.6.3 3-1.1.1-.2.1-.4.1-.5 0-.2-.1-.3-.4-.4l-.6-.2c-.5-.2-.6-.2-.9.6l-.2-.1.7-2.1.2.1c-.1.4 0 .5.5.6l.4.1zM45.7 30h.2c0 .6 0 .7.9.8l2.8.4c.5.1.7 0 .8-.1.1-.1.2-.4.2-.6.1-.4.2-1.3 0-1.5-.1-.2-.4-.3-.8-.5l.1-.2c.2.1 1 .4 1.3.5l-.6 4.2h-.2c0-.7 0-.8-.9-.9l-2.8-.4c-.9-.1-.9-.1-1.1.6h-.2l.3-2.3zm3-7.4c1.7.1 2.8 1.4 2.7 2.9-.1 1.6-1.4 2.6-2.8 2.5-1.3-.1-2.8-1.1-2.6-3 0-1.4 1.1-2.5 2.7-2.4zm-.4 4.4c1.5.1 2.6-.5 2.7-1.6.1-.8-.6-1.5-2.1-1.6-1.7-.1-2.7.5-2.7 1.6-.1.8.7 1.5 2.1 1.6zM46 20.2c0-.6.1-1 .3-1.3.2-.3.6-.5 1-.5.7 0 1.2.4 1.4 1.1.2-.1.8-.4 1.2-.7.4-.3.7-.5.9-.7.2-.2.3-.3.4-.6h.2v.3c-.1.9-.3 1.2-.7 1.5-.4.3-.9.5-1.3.8-.4.1-.4.2-.4.5v.3h1c.9 0 .9-.1 1-.7h.2v2.3H51c0-.6-.1-.7-1-.7h-2.8c-.9 0-.9.1-1 .7H46v-2.3zm2.7.6v-.3c0-.3 0-.6-.2-.8-.3-.3-.6-.4-1-.4-.8 0-1.1.6-1.1 1.1 0 .4 0 .4.3.4h2zM46 14.7h.2c0 .6.1.7 1 .7H50c.9 0 .9-.1 1-.7h.2V17H51c0-.6-.1-.7-1-.7h-2.8c-.9 0-.9.1-1 .7H46v-2.3zm-.1-3.3l1.5-.6c1-.4 2-.7 2.8-1 .7-.3.8-.4.8-.9h.2V11H51v-.2c0-.3-.1-.3-.4-.2-.2.1-.7.3-1.2.4v1.5c.2.1.7.3 1 .4.4.1.5.1.6-.3v-.2h.2v1.8H51c-.1-.5-.1-.6-.8-.9L46 11.7l-.1-.3zm3.1 1.1v-1.3l-1.8.6 1.8.7zm-3-5.7L49.9 5 46 3.3V1.8h.2c.1.7.1.7 1 .7l2.8-.1c.9 0 .9 0 1-.7h.2V4H51c0-.7 0-.7-1-.7h-3.1l4.2 1.8v.2L47 7.1l2.1.1h1.4c.3 0 .4-.2.4-.7h.2v1.9H51c0-.4-.1-.6-.4-.6-.2 0-.7-.1-1.5-.1l-1.7-.1c-1.1-.1-1.2 0-1.2.7H46V6.8zm-34.5 4.4l.2-1.1h1.5V15H12v-3.8h-.5zm5.9.1c0 .5-.3.9-.8 1.1.6.2 1 .6 1 1.3 0 1-1 1.5-1.8 1.5s-1.8-.5-1.8-1.5c0-.6.4-1.1 1-1.3-.4-.1-.8-.6-.8-1.1 0-.9.8-1.4 1.6-1.4s1.6.5 1.6 1.4zm-2.1 0c0 .3.2.5.5.5s.5-.2.5-.5-.2-.5-.5-.5-.5.2-.5.5zm-.1 2.2c0 .3.3.6.6.6s.6-.3.6-.6-.3-.6-.6-.6-.6.3-.6.6zm2.9-2.2v-1.2h4L19.5 15H18l2.1-3.7h-2zm7.8 1.2c0 1.2-.6 2.5-2 2.5s-2-1.3-2-2.5.6-2.5 2-2.5 2 1.3 2 2.5zm-2.8 0c0 .5.1 1.5.8 1.5.6 0 .8-1 .8-1.5s-.2-1.4-.8-1.4c-.6-.1-.8.9-.8 1.4zm1.8 8h-1.7c-.6 0-2.3 1.2-2.3 1.2s-.2-1.4 1-1.8c1.3-.5 1-.9 1-.9l-1.2.4s-.1-.1.1-.4c.1-.2 1.1-.5 1.1-.5.8-.3.5-.9.5-.9l-1.4.1c-.3-.3-.3-.3-.7-.4-.4-.1-1.1.5-1.1.3.1-.2.1-.8.2-1.4.1-.6-1.7 2-1.7 2-2.3 4.4-1.7 7.4-1.7 7.4-1.5.7-1.5 2.4-1.5 1.9 0-2.5.8-2.3.8-3.9s-1.7-1.4-1.7-1.4c-.7 0-.9.4-.9.4s.3-.1.5.1c0 0 .5.4-.4 2.5-.2.4-1 1.9 0 3 .7.8 1.8.5 1.8.5.1.4.1.6.1.6h-.8c-.7 0-.8.8-.8.8v3.3l.5.5h1.8c0-.8-1-1.2-1-1.2v-1.4h1.7c.9-.1 1.4-1.8 1.4-1.8l.6.1c0 .1-.9 1.8-.9 1.8l1.9 1.8v.5h2.1c.1-.5-.9-1-.9-1l-1.3-1c-.2-.2-.1-.4.2-.4.3-.1.5-.1.7-.3.3-.1 1.5-.9 1-2.3s-2.2-.9-2.2-1c0-.2.9-2.2.9-2.2l-.7-1.1.9.5 2.3-.4c.2 1.9 1.1 1.4 1.1 1.4v-1.4s0-.9-.9-1.2c-1-.3-1.7-.1-2.1-.2-.3-.1-.2-.3-.2-.3h1.3l1.2-1 .7-.1c1.1-.3.7-1.2.7-1.2zm-3.4-2.7l.2.3h-.9l.7-.3z"/><path class="st0" d="M26.7 34.2s-1.3.1-2.5-1c-1.1-1.1-1.1-2.5-1.1-2.5v-2.6s-.3-.1-.3-.4c0-.4.4-.3.4-.3h.8c0 .9.5.8.5.8.6 0 .5-.8.5-.8h3.4s-.1.8.5.8c0 0 .5.1.5-.8h.8s.4-.1.4.3c0 .3-.3.4-.3.4v2.6s0 1.3-1.1 2.5c-1.2 1.1-2.5 1-2.5 1z"/><path class="st0" d="M39.6 28.3c1-1.1.2-2.6 0-3-.9-2.1-.4-2.5-.4-2.5.1-.2.5-.1.5-.1s-.2-.4-.9-.4c0 0-1.7-.1-1.7 1.4 0 1.6.8 1.4.8 3.9 0 .4 0-1.2-1.5-1.9 0 0 .6-3-1.7-7.4 0 0-1.8-2.6-1.7-2 .1.6.1 1.2.2 1.4.1.2-.6-.4-1.1-.3-.4.1-.4.1-.7.4l-1.4-.2s-.2.6.5.9c0 0 1 .3 1.1.5.2.3.1.4.1.4l-1.3-.4s-.3.4 1 .9 1 1.8 1 1.8-1.7-1.2-2.3-1.2h-1.7s-.4.9.8 1.1l.7.1 1.2 1h1.3s.1.3-.2.3c-.3.1-1-.1-2.1.2-.9.3-.9 1.2-.9 1.2v1.4s.9.5 1.1-1.4l2.3.4.9-.5-.7 1.1s.9 2.1.9 2.2c0 .2-1.7-.4-2.2 1-.5 1.5.7 2.2 1 2.3.3.1.5.2.7.3.2.1.4.3.2.4L32 33.1s-1 .4-.9 1h2.1v-.5l1.9-1.8s-1-1.7-.9-1.8l.7-.1s.5 1.7 1.4 1.8H38V33s-1.1.3-1 1.2h1.8l.5-.5v-3.3s0-.8-.8-.8h-.8s0-.2.1-.6c0-.2 1.1.1 1.8-.7zm-8-10.1l.2-.3.7.3h-.9zm-4.8 6.2v-6.6c.1-.1.2-.2.2-.3 0-.2-.1-.3-.3-.3-.2 0-.3.1-.3.3 0 .1.1.2.2.3v6.6l-2.2 2.2v.7h.3v-.6l2-2.1 2 2.1v.6h.3v-.7l-2.2-2.2zm-.1-15.9V6.4zm0 0L33 2.8l.8-.7h-2.4l-4.7 4.3zm0 2.2v2.1l11-10 .8-.7h-2.4l-9.4 8.6zm16.4-8.6h-2.2L26.7 15h2.4L42.3 2.8l.8-.7zM31.4 15h2.4l8.6-8v.1l.7-.7V4.2zm4.7 0h2.4l3.9-3.6.7-.7V8.5z"/><path class="st0" d="M42.4 15v13.2c0 8.7-14.5 12.7-15.8 13.1-1.3-.3-15.8-4.3-15.8-13.1V2.8h15.8v1.4l1.6-1.4.8-.7H10.2v26.1c0 4 2.9 7.7 8.2 10.6 4 2.2 8.1 3.2 8.1 3.2h.2s4.1-1 8.1-3.2c5.4-2.9 8.2-6.6 8.2-10.6V12.8L40.9 15h1.5zM63 29.9v-1.4c4.2-.3 4.5-.6 4.5-5.2V8.7c0-4.7-.4-4.9-4.2-5.2V2.1h13.5v1.4c-4.2.3-4.5.5-4.5 5.2v14.7c0 2.4.3 3.7 1.2 4.1.8.4 2.1.5 4.4.5 2.4 0 4.3-.4 5.3-1.6.7-.7 1.5-2.2 2.1-4.2l1.6.2c-.3 1.4-1.2 6.2-1.6 7.4H63zm24.1-13.3c0-10.5 8-15.3 14.4-15.3 8.7 0 14.3 6.3 14.3 14.4 0 9.8-7.2 15-14.3 15-9.3 0-14.4-7.3-14.4-14.1zm15 12.2c4.7 0 8.4-3.1 8.4-11.9 0-7.1-3.4-13.7-9.4-13.7-4.9 0-8.4 4.3-8.4 11.9-.1 8.1 3.4 13.7 9.4 13.7zm19.7 1.1v-1.4c4.4-.3 4.7-.6 4.7-5.2v-3.8c0-1.2-.1-1.6-.9-2.9-1.3-2.3-3-5.2-5.7-9.9-1.6-2.7-2-2.8-4.7-3.1V2.1h12.1v1.4l-1.9.3c-1.4.2-1.5.6-.8 1.8.3.6 4.2 7.5 5.6 9.9 1.9-3.3 3.8-7.5 4.7-9.5.8-1.7.7-2-1-2.2l-1.8-.3V2.1h10.7v1.4c-3.3.3-3.5.7-5.1 3.2-1.6 2.4-3.5 5.4-5.5 9-.9 1.7-1 2.1-1 3.1v4.5c0 4.6.4 4.9 4.8 5.2v1.4h-14.2zm19.4-13.3c0-10.5 8-15.3 14.4-15.3 8.7 0 14.3 6.3 14.3 14.4 0 9.8-7.2 15-14.3 15-9.3 0-14.4-7.3-14.4-14.1zm15 12.2c4.7 0 8.4-3.1 8.4-11.9 0-7.1-3.4-13.7-9.4-13.7-4.9 0-8.4 4.3-8.4 11.9-.1 8.1 3.4 13.7 9.4 13.7zm15.9 1.1v-1.4c4.2-.3 4.5-.6 4.5-5.2V8.7c0-4.7-.4-4.9-4.2-5.2V2.1h13.5v1.4c-4.2.3-4.5.5-4.5 5.2v14.7c0 2.4.3 3.7 1.2 4.1.8.4 2.1.5 4.4.5 2.4 0 4.3-.4 5.3-1.6.7-.7 1.5-2.2 2.1-4.2l1.6.2c-.3 1.4-1.2 6.2-1.6 7.4h-22.3zm41.4-1.4l1.1-.1c1.7-.2 2.2-.7 1-3.6l-2.1-5.1h-8.4c-.4 1-1.5 3.9-2.1 5.8-.7 2.1-.2 2.7 1.6 2.9l1.4.1v1.4h-10.6v-1.4c2.7-.3 3.7-.6 5.5-4.9l9-21.9 1.5-.4 9 23c1.5 3.7 2.6 3.9 5.3 4.1v1.4h-12.2v-1.3zm-7.6-10.9h7l-3.5-9.5h-.1l-3.4 9.5zM63 35.6h2v5.7c0 .6.1 1.1.2 1.4.2.5.7.8 1.5.8s1.3-.3 1.5-.8c.2-.3.2-.8.2-1.4v-5.7h2v5.7c0 1-.2 1.8-.5 2.3-.6 1-1.7 1.5-3.3 1.5-1.6 0-2.7-.5-3.3-1.5-.2-.6-.3-1.3-.3-2.3v-5.7zm10.9 0h2l3.7 6.5v-6.5h1.8v9.3h-1.9l-3.8-6.6v6.6h-1.8v-9.3zm12.9 9.2h-1.9v-9.3h1.9v9.3zm8.8-9.2h2l-3.2 9.3h-1.8l-3.1-9.3h2.1l2 7 2-7zm11.2 1.6h-4.9v2h4.5v1.6h-4.5v2.4h5.1v1.7h-7v-9.3h6.8v1.6zm9.1-1.4c.3.1.6.4.9.6.2.2.4.5.5.8.1.3.2.6.2 1s-.1.9-.3 1.3c-.2.4-.6.7-1.1.9.4.2.7.4.9.7.2.3.3.8.3 1.4v.6c0 .4 0 .7.1.9.1.2.2.4.4.5v.2h-2.1c-.1-.2-.1-.4-.1-.5-.1-.3-.1-.5-.1-.8v-.9c0-.6-.1-1-.3-1.2-.2-.2-.6-.3-1.1-.3h-1.9v3.6H110v-9.3h4.4c.7.3 1.2.4 1.5.5zm-4 1.4v2.5h2.1c.4 0 .7-.1.9-.2.4-.2.6-.5.6-1 0-.6-.2-.9-.5-1.1-.2-.1-.5-.2-.9-.2h-2.2zm9.7 4.8c.1.4.2.7.4.9.3.4.9.6 1.6.6.5 0 .8-.1 1.1-.2.6-.2.8-.5.8-1.1 0-.3-.1-.5-.4-.7-.3-.2-.7-.3-1.3-.4l-1-.2c-1-.2-1.7-.5-2-.7-.6-.4-.9-1.1-.9-2 0-.8.3-1.5.9-2.1.6-.5 1.5-.8 2.7-.8 1 0 1.8.3 2.5.8s1.1 1.3 1.1 2.3h-1.9c0-.6-.3-1-.7-1.2-.3-.2-.7-.2-1.2-.2s-.9.1-1.2.3c-.3.2-.5.5-.5.8 0 .3.1.6.4.7.2.1.6.2 1.2.4l1.6.4c.7.2 1.2.4 1.6.7.6.4.8 1.1.8 1.9 0 .8-.3 1.5-1 2.1-.7.6-1.6.8-2.8.8-1.2 0-2.2-.3-2.9-.8-.7-.6-1-1.3-1-2.3h2.1zm10.8 2.8h-1.9v-9.3h1.9v9.3zm10.4-9.2v1.6H140v7.6h-1.9v-7.6h-2.8v-1.6h7.5zm7.3 0h2.2l-3.1 5.8v3.5h-1.9v-3.5l-3.2-5.8h2.3l1.9 4 1.8-4zm10.4.9c.7-.8 1.7-1.1 2.8-1.1 1.5 0 2.7.5 3.4 1.5.4.6.6 1.1.6 1.7h-1.9c-.1-.4-.3-.8-.5-1-.3-.4-.9-.6-1.5-.6-.7 0-1.2.3-1.6.9-.4.6-.6 1.4-.6 2.4s.2 1.8.6 2.3c.4.5 1 .8 1.6.8.7 0 1.2-.2 1.5-.7.2-.2.3-.6.5-1.1h1.9c-.2 1-.6 1.8-1.3 2.5-.7.6-1.6.9-2.6.9-1.3 0-2.4-.4-3.1-1.3-.8-.9-1.1-2-1.1-3.5s.4-2.8 1.3-3.7zm9.6 8.3v-9.3h1.9V39h3.6v-3.5h1.9v9.3h-1.9v-4.1H172v4.1h-1.9zm12.9 0h-1.9v-9.3h1.9v9.3zm4.3-8.3c.7-.8 1.7-1.1 2.8-1.1 1.5 0 2.7.5 3.4 1.5.4.6.6 1.1.6 1.7h-1.9c-.1-.4-.3-.8-.5-1-.3-.4-.9-.6-1.5-.6-.7 0-1.2.3-1.6.9-.4.6-.6 1.4-.6 2.4s.2 1.8.6 2.3c.4.5 1 .8 1.6.8.7 0 1.2-.2 1.5-.7.2-.2.4-.6.5-1.1h1.9c-.2 1-.6 1.8-1.3 2.5-.7.6-1.6.9-2.6.9-1.3 0-2.4-.4-3.1-1.3-.8-.9-1.1-2-1.1-3.5s.5-2.8 1.3-3.7zm11.5-.9h2.2l3.3 9.3h-2.1l-.6-1.9h-3.4l-.6 1.9h-2l3.2-9.3zm-.2 5.7h2.4l-1.2-3.6-1.2 3.6zm13.8-2.8c-.1-.6-.5-1.1-1.1-1.3-.3-.1-.7-.2-1.1-.2-.7 0-1.4.3-1.8.8-.5.6-.7 1.4-.7 2.5s.3 1.9.8 2.4 1.1.7 1.8.7 1.2-.2 1.6-.6c.4-.4.7-.9.8-1.5h-2.1v-1.5h3.9v5h-1.3l-.2-1.2c-.4.4-.7.7-1 .9-.5.3-1.1.5-1.9.5-1.2 0-2.2-.4-3-1.3-.8-.9-1.2-2-1.2-3.5s.4-2.7 1.2-3.6c.8-.9 1.9-1.4 3.3-1.4 1.2 0 2.1.3 2.8.9.7.6 1.1 1.3 1.2 2.2h-2zm12.2 5.5c-.7.7-1.7 1.1-3 1.1s-2.3-.4-3-1.1c-.9-.9-1.4-2.2-1.4-3.8 0-1.7.5-3 1.4-3.8.7-.7 1.7-1.1 3-1.1s2.3.4 3 1.1c.9.8 1.4 2.1 1.4 3.8 0 1.7-.5 2.9-1.4 3.8zm-1.2-1.4c.4-.6.7-1.4.7-2.4s-.2-1.8-.7-2.4c-.5-.6-1.1-.8-1.8-.8-.8 0-1.4.3-1.8.8-.5.6-.7 1.4-.7 2.4s.2 1.8.7 2.4c.5.6 1.1.8 1.8.8.7.1 1.3-.2 1.8-.8z"/></svg>